<?xml version="1.0" encoding="UTF-8"?>
<!-- Created with Inkscape (http://www.inkscape.org/) -->
<svg width="210mm" height="297mm" version="1.1" viewBox="0 0 210 297" xmlns="http://www.w3.org/2000/svg" xmlnsSvg="http://www.w3.org/2000/svg">
 <g transform="matrix(8.6221 0 0 8.6221 -333.03 -2285.3)">
  <path d="m45.169 265.31c-0.028 5.2e-4 -0.05551 4e-3 -0.0832 0.01-0.28797 0.0622-0.49868 0.34952-0.64337 0.60616-0.24307 0.43112-0.0847 1.012-0.31212 1.4516-0.20424 0.39476-0.59568 0.66006-0.90227 0.98186-0.32402 0.34009-0.61431 0.56304-0.99064 1.0025 0 0-0.13459 0.80579-0.25683 1.1942-0.19941 0.63365-0.44465 1.2596-0.77205 1.8376-0.46427 0.81966-1.1872 1.4706-1.6717 2.2784-0.2621 0.43694-0.66946 0.86823-0.66146 1.3777 0.0056 0.35881 0.23986 0.70426 0.49609 0.9555 0.44396 0.43531 1.0646 0.69289 1.6717 0.82682 0.47862 0.10557 1.4702-0.0367 1.4702-0.0367s0.28918-0.51143 0.47749-0.73484c0.21508-0.25517 0.43463-0.5343 0.73484-0.68006 0.59691-0.28986 1.3616-0.0389 1.9663-0.31212 0.58672-0.26506 1.0218-0.78773 1.4883-1.2314 0.26085-0.24812 0.72915-0.79634 0.72915-0.79634s0.29117 0.71744 0.26303 1.0904c-0.03782 0.50128-0.2816 0.98469-0.56947 1.3968-0.58344 0.83525-1.5599 1.3179-2.2603 2.0578-0.64644 0.68282-1.4193 1.3191-1.7823 2.1864-0.15225 0.36373-0.12816 1.1756-0.12816 1.1756h0.0021c-0.03974 9e-3 -0.07929 0.0185-0.11886 0.0284-0.30447 0.0768-0.61308 0.16811-0.88263 0.32918-0.32283 0.1929-0.66649 0.41478-0.84801 0.74414-0.1607 0.29157-0.13002 0.65461-0.15606 0.9865-0.05144 0.65566 0 1.973 0 1.973h14.643s0.05144-1.3174 0-1.973c-0.02604-0.33189 0.0051-0.69491-0.15555-0.9865-0.18144-0.32941-0.52518-0.55124-0.84801-0.74414-0.26955-0.16107-0.57816-0.2524-0.88263-0.32918-0.0017-4.3e-4 -0.0035-6.1e-4 -0.0052-1e-3l0.27595 5.2e-4s0.66392-2.6582 0.82682-4.0147c0.12202-1.0162 0.25833-2.0559 0.11007-3.0686-0.17143-1.1709-0.54215-2.3402-1.1389-3.3621-0.59714-1.0225-1.4283-1.9286-2.3704-2.6458-0.84342-0.64207-1.8342-1.1049-2.8479-1.4149-0.62041-0.18974-1.9291-0.25735-1.9291-0.25735-0.33511-0.63979-0.78453-1.2609-1.3782-1.6722-0.16299-0.11294-0.36368-0.23362-0.55966-0.22996z" fill="#3dd911" stroke="#000" stroke-width="1e-8"/>
  <g stroke-width="0">
   <path d="m44.262 271.24s0.24691-0.25199 0.40926-0.29817c0.29889-0.085 0.62919 0.14969 0.9296 0.0702 0.2226-0.0589 0.49089-0.17074 0.57296-0.38588 0.07884-0.20668-0.02338-0.47211-0.1637-0.64311-0.12331-0.15027-0.33232-0.23719-0.52619-0.2514-0.16476-0.0121-0.33342 0.0587-0.47357 0.14616-0.22456 0.14016-0.4157 0.34712-0.54373 0.57881-0.13054 0.23622-0.20463 0.78339-0.20463 0.78339z"/>
   <g fill-opacity=".14">
    <path d="m42.613 277.38s0.0075-0.54884 0.05257-0.8185c0.04627-0.27699 0.09612-0.56171 0.22217-0.81267 0.12773-0.25432 0.52619-0.67236 0.52619-0.67236s0.2343 0.47056 0.44434 0.60803c0.26229 0.17168 0.60457 0.21421 0.9179 0.20464 0.64057-0.0196 1.8475-0.53206 1.8475-0.53206l-0.72497 0.63142-1.8826 0.36833z"/>
    <path d="m47.781 273.96s0.46409-0.67791 0.65481-1.0407c0.15599-0.29672 0.39756-0.92375 0.39756-0.92375s0.07243 1.4891-0.08185 2.21c-0.14564 0.68051-0.78343 1.9352-0.78343 1.9352l0.09355-1.4792z"/>
    <path d="m50.211 281.54s0.19016-1.0296 0.41341-1.4966c0.36294-0.75903 1.0302-1.3344 1.4717-2.0505 0.4115-0.66738 0.89529-1.3245 1.0914-2.0836 0.23859-0.92354 0.24978-1.9248 0.06615-2.8608-0.19674-1.0029-0.62824-1.9806-1.2237-2.8112-0.52065-0.72625-1.267-1.2696-1.9844-1.8025-0.59343-0.44083-1.9017-1.141-1.9017-1.141l3.1254 1.0087 1.6536 1.4718 1.1245 1.4056 0.9095 1.8521 0.42995 2.0836 0.08268 1.0914-0.24805 2.0836-0.28112 1.7859-0.46302 1.9678-1.6371-0.3142z"/>
   </g>
  </g>
  <path d="m47.836 281.59c-0.11645 3.7e-4 -0.23293 2.2e-4 -0.34933 4e-3 -0.72158 0.0211-1.4444 0.0372-2.1632 0.10387-0.67266 0.0624-1.3526 0.11179-2.0076 0.27698-0.30447 0.0768-0.61308 0.16811-0.88263 0.32918-0.32283 0.1929-0.66648 0.41478-0.84801 0.74414-0.1607 0.29157-0.13002 0.65462-0.15606 0.98651-0.05144 0.65566 0 1.973 0 1.973h14.643s0.05144-1.3173 0-1.973c-0.02604-0.33189 0.0051-0.69492-0.15555-0.98651-0.18144-0.32941-0.52518-0.55124-0.84801-0.74414-0.26955-0.16107-0.57816-0.2524-0.88263-0.32918-0.65504-0.16519-1.335-0.21456-2.0076-0.27698-0.71897-0.0667-1.4418-0.0865-2.1637-0.10387-0.42113-0.0101-0.8425 8.3e-4 -1.2637 0-0.30498-6e-4 -0.60995-5e-3 -0.91493-4e-3z" fill="none" stroke="#000" stroke-width=".5"/>
  <path d="m43.432 281.95s-0.02363-0.81219 0.12862-1.1759c0.36306-0.86736 1.1358-1.5037 1.7823-2.1865 0.70045-0.73987 1.6765-1.2226 2.26-2.0579 0.28787-0.41212 0.53177-0.89513 0.56959-1.3964 0.02814-0.37294-0.26307-1.0907-0.26307-1.0907s-0.46827 0.54863-0.72911 0.79675c-0.46648 0.44372-0.90156 0.96598-1.4883 1.231-0.60471 0.27319-1.3691 0.0225-1.966 0.31236-0.30021 0.14576-0.51987 0.42466-0.73496 0.67983-0.18831 0.22341-0.47772 0.73495-0.47772 0.73495s-0.99129 0.14237-1.4699 0.0368c-0.60717-0.13393-1.2281-0.39151-1.672-0.82682-0.25623-0.25124-0.49046-0.59663-0.49609-0.95544-8e-3 -0.50946 0.39936-0.9411 0.66146-1.378 0.48458-0.80783 1.2077-1.4587 1.672-2.2784 0.32739-0.578 0.57229-1.2037 0.7717-1.8374 0.12224-0.38845 0.25724-1.1943 0.25724-1.1943 0.37633-0.43948 0.66648-0.66229 0.9905-1.0024 0.30659-0.3218 0.69776-0.58724 0.902-0.982 0.22743-0.43957 0.06929-1.0204 0.31236-1.4515 0.14469-0.25664 0.35512-0.54409 0.64308-0.60633 0.2215-0.0479 0.45681 0.0914 0.64308 0.22048 0.59368 0.41131 1.0429 1.0322 1.378 1.672 0 0 1.3088 0.0675 1.9293 0.25724 1.0137 0.31002 2.0045 0.77271 2.8479 1.4148 0.94214 0.71722 1.7731 1.6234 2.3702 2.6458 0.5968 1.0219 0.96775 2.1915 1.1392 3.3624 0.14826 1.0127 0.01178 2.0523-0.11024 3.0684-0.1629 1.3566-0.82682 4.0147-0.82682 4.0147" fill="none" stroke="#000" stroke-width=".5"/>
 </g>
</svg>
