<?xml version="1.0" encoding="UTF-8"?>
<svg width="45" height="45" version="1.1" xml:space="preserve" xmlns="http://www.w3.org/2000/svg"><g transform="matrix(1.823 0 0 1.823 -5.6223 -106.08)"><path d="m22.088 80.347s0.07093-1.2062-0.0832-1.7797c-0.14474-0.53864-0.42165-1.0501-0.76998-1.4857-0.41863-0.5235-1.0315-0.85642-1.5384-1.295-0.50646-0.43821-1.1018-0.79759-1.5017-1.3348-0.35412-0.4757-0.59772-1.0398-0.75034-1.6128-0.11253-0.42251-0.11162-1.3074-0.11162-1.3074h1.6128s0.43541-0.39915 0.52865-0.66714c0.08224-0.23638 0-0.75086 0-0.75086l-1.9627-1.1333s0.80874-0.86985 1.0196-1.4102c0.24947-0.63944 0.3805-1.3725 0.24236-2.0448-0.12675-0.61691-0.51368-1.1768-0.94413-1.6366-0.34478-0.36824-0.7873-0.66018-1.2583-0.84078-0.35945-0.13782-0.75812-0.16485-1.1431-0.16485s-0.78363 0.027-1.1431 0.16485c-0.47102 0.1806-0.91354 0.47254-1.2583 0.84078-0.43045 0.45974-0.81738 1.0197-0.94413 1.6366-0.13814 0.67234-0.0071 1.4054 0.24236 2.0448 0.21083 0.5404 1.0196 1.4102 1.0196 1.4102l-1.9627 1.1333s-0.08224 0.51448 0 0.75086c0.09324 0.26799 0.52813 0.66714 0.52813 0.66714h1.6128s0.0014 0.8849-0.1111 1.3074c-0.15262 0.57306-0.39674 1.1371-0.75086 1.6128-0.39991 0.53721-0.99526 0.89659-1.5017 1.3348-0.50689 0.43859-1.1193 0.77151-1.5379 1.295-0.34833 0.4356-0.62524 0.94706-0.76998 1.4857-0.15413 0.57355-0.08372 1.7797-0.08372 1.7797z" fill="#c72653" stroke="#000" stroke-width="2e-8"/><g stroke-width="0"><path d="m22.088 80.347s0.07093-1.2062-0.0832-1.7797c-0.14474-0.53864-0.42165-1.0501-0.76998-1.4857-0.41863-0.5235-1.0315-0.85642-1.5384-1.295-0.50646-0.43821-1.1018-0.79759-1.5017-1.3348-0.35412-0.4757-0.59772-1.0398-0.75034-1.6128-0.11253-0.42251-0.11162-1.3074-0.11162-1.3074h1.6128s0.43541-0.39915 0.52865-0.66714c0.08224-0.23638 0-0.75086 0-0.75086l-1.9627-1.1333s0.80874-0.86985 1.0196-1.4102c0.24947-0.63944 0.3805-1.3725 0.24236-2.0448-0.12675-0.61691-0.51368-1.1768-0.94413-1.6366-0.34478-0.36824-0.7873-0.66018-1.2583-0.84078-0.35945-0.13782-0.75812-0.16485-1.1431-0.16485s-0.78363 0.027-1.1431 0.16485c-0.47102 0.1806-0.91354 0.47254-1.2583 0.84078-0.43045 0.45974-0.81738 1.0197-0.94413 1.6366-0.13814 0.67234-0.0071 1.4054 0.24236 2.0448 0.21083 0.5404 1.0196 1.4102 1.0196 1.4102l-1.9627 1.1333s-0.08224 0.51448 0 0.75086c0.09324 0.26799 0.52813 0.66714 0.52813 0.66714h1.6128s0.0014 0.8849-0.1111 1.3074c-0.15262 0.57306-0.39674 1.1371-0.75086 1.6128-0.39991 0.53721-0.99526 0.89659-1.5017 1.3348-0.50689 0.43859-1.1193 0.77151-1.5379 1.295-0.34833 0.4356-0.62524 0.94706-0.76998 1.4857-0.15413 0.57355-0.08372 1.7797-0.08372 1.7797z" fill="none"/><g fill-opacity=".14039"><path d="m13.506 71.92s0.85369 0.94307 1.3002 1.3958c0.32537 0.32987 0.66619 0.6442 1.004 0.96134 0.45391 0.42614 0.86604 0.9053 1.3742 1.265 0.55361 0.39181 1.1498 0.75196 1.7974 0.95359 0.60779 0.18925 1.8969 0.2209 1.8969 0.2209l-1.2284-0.86122-1.2728-1.1137-0.8689-1.5909-0.34266-1.8112h-3.7816z"/><path d="m17.326 71.38s0.36503-0.36786 0.44133-0.60575c0.09956-0.31039 0.07899-0.66389-0.0087-0.97786-0.08206-0.29399-0.4673-0.78748-0.4673-0.78748l1.523 0.65768 0.62306 0.58844-0.05192 0.53653-0.23365 0.60575-0.77882 0.15576z"/><path d="m18.182 64.491s0.04936 1.2834-0.1125 1.8951c-0.1168 0.44148-0.33514 0.86096-0.60575 1.2288-0.2406 0.32706-0.55224 0.60346-0.88267 0.83941-0.19319 0.13796-0.41228 0.23827-0.63171 0.32883-0.22348 0.0922-0.69229 0.21634-0.69229 0.21634h2.2326l0.96921-1.2634 0.38941-1.324-0.08653-1.0904z"/></g><g fill="#fff" fill-opacity=".14"><path d="m8.9335 79.396s0.73038-1.2968 1.2628-1.8007c0.60013-0.568 1.5344-0.71176 2.1047-1.3096 0.41917-0.43936 0.69435-1.0149 0.88867-1.5903 0.1764-0.52223 0.23386-1.637 0.23386-1.637l-1.5903 2.2451-1.9878 1.5903-0.93544 1.754z"/><path d="m11.526 70.197 1.4221-0.08268 0.46302-1.1245z"/><path d="m12.518 67.651s-0.01359-1.0694 0.09922-1.5875c0.10803-0.49612 0.26919-0.99629 0.5457-1.4221 0.225-0.34651 0.55205-0.62055 0.87643-0.87643 0.22341-0.17624 0.46939-0.3269 0.7276-0.44648 0.33691-0.15603 1.0583-0.34726 1.0583-0.34726h-1.3891l-1.7198 1.3395-0.67799 1.2733 0.11576 1.3891z"/></g></g><path d="m22.088 80.347s0.07093-1.2062-0.0832-1.7797c-0.14474-0.53864-0.42165-1.0501-0.76998-1.4857-0.41863-0.5235-1.0315-0.85642-1.5384-1.295-0.50646-0.43821-1.1018-0.79759-1.5017-1.3348-0.35412-0.4757-0.59772-1.0398-0.75034-1.6128-0.11253-0.42251-0.11162-1.3074-0.11162-1.3074h1.6128s0.43541-0.39915 0.52865-0.66714c0.08224-0.23638 0-0.75086 0-0.75086l-1.9627-1.1333s0.80874-0.86985 1.0196-1.4102c0.24947-0.63944 0.3805-1.3725 0.24236-2.0448-0.12675-0.61691-0.51368-1.1768-0.94413-1.6366-0.34478-0.36824-0.7873-0.66018-1.2583-0.84078-0.35945-0.13782-0.75812-0.16485-1.1431-0.16485s-0.78363 0.027-1.1431 0.16485c-0.47102 0.1806-0.91354 0.47254-1.2583 0.84078-0.43045 0.45974-0.81738 1.0197-0.94413 1.6366-0.13814 0.67234-0.0071 1.4054 0.24236 2.0448 0.21083 0.5404 1.0196 1.4102 1.0196 1.4102l-1.9627 1.1333s-0.08224 0.51448 0 0.75086c0.09324 0.26799 0.52813 0.66714 0.52813 0.66714h1.6128s0.0014 0.8849-0.1111 1.3074c-0.15262 0.57306-0.39674 1.1371-0.75086 1.6128-0.39991 0.53721-0.99526 0.89659-1.5017 1.3348-0.50689 0.43859-1.1193 0.77151-1.5379 1.295-0.34833 0.4356-0.62524 0.94706-0.76998 1.4857-0.15413 0.57355-0.08372 1.7797-0.08372 1.7797z" fill-opacity="0" stroke="#000" stroke-width=".5"/></g></svg>
