<?xml version="1.0" encoding="UTF-8"?>
<svg width="45" height="45" version="1.1" xml:space="preserve" xmlns="http://www.w3.org/2000/svg"><g transform="matrix(1.823 0 0 1.823 -150.09 -57.434)"><path d="m91.575 32.938c-0.06902 6e-4 -0.13786 3e-3 -0.20567 9e-3 -0.44358 0.0386-0.9034 0.22162-1.2278 0.52658-0.41024 0.38562-0.71591 0.94716-0.76016 1.5084-0.03923 0.49768 0.16494 1.0209 0.4563 1.4263 0.23432 0.32601 0.97048 0.71313 0.97048 0.71313l-0.22221 5.5542-2.467-2.3151s0.31462-0.48411 0.37414-0.76016c0.07521-0.34881 0.08718-0.73449-0.03514-1.0697-0.10799-0.29593-0.33665-0.5481-0.58446-0.74259-0.28128-0.22077-0.62548-0.37722-0.97668-0.44442-0.39095-0.0749-0.81924-0.0794-1.1927 0.0584-0.38584 0.1423-0.7541 0.40834-0.97617 0.75448-0.25169 0.39232-0.37102 0.89937-0.31574 1.3622 0.05561 0.46559 0.29834 0.92682 0.63149 1.2568 0.31768 0.31463 1.2041 0.59066 1.2041 0.59066l3.5781 8.0212h1.0516c-0.54878 0.0505-1.0983 0.10843-1.6314 0.24288-0.30447 0.0768-0.61308 0.16811-0.88263 0.32918-0.32283 0.1929-0.66648 0.41478-0.84801 0.74414-0.1607 0.29157-0.13002 0.65461-0.15606 0.9865-0.05144 0.65566 0 1.973 0 1.973h14.643s0.0514-1.3174 0-1.973c-0.026-0.33189 5e-3 -0.69491-0.15555-0.9865-0.18145-0.32941-0.52519-0.55124-0.84801-0.74414-0.26955-0.16107-0.57815-0.2524-0.88263-0.32918-0.53029-0.13373-1.0768-0.19156-1.6226-0.24185h1.0304l3.5781-8.0212s0.88637-0.27604 1.2041-0.59067c0.33315-0.32993 0.57588-0.79169 0.63149-1.2573 0.0553-0.46282-0.064-0.96987-0.31574-1.3622-0.22206-0.34614-0.59032-0.61166-0.97617-0.75396-0.37345-0.13774-0.80174-0.13325-1.1927-0.0584-0.35121 0.0672-0.6954 0.22365-0.97669 0.44442-0.24781 0.19449-0.47647 0.44666-0.58446 0.74259-0.12232 0.33521-0.11036 0.72089-0.0351 1.0697 0.0595 0.27605 0.37414 0.76016 0.37414 0.76016l-2.467 2.3151-0.22221-5.5542s0.73617-0.38712 0.97049-0.71313c0.29136-0.40538 0.49503-0.92911 0.45579-1.4268-0.0442-0.56128-0.34942-1.1228-0.75965-1.5084-0.32443-0.30496-0.78425-0.48743-1.2278-0.52607-0.54251-0.0473-1.1356 0.075-1.5906 0.37414-0.39341 0.25869-0.69842 0.68582-0.84181 1.1343-0.1211 0.37875-0.0994 0.81443 0.0233 1.1927 0.14638 0.45153 0.81287 1.1694 0.81287 1.1694l-1.7089 4.5041-1.7095-4.5046s0.66598-0.71791 0.81235-1.1694c0.12262-0.37826 0.14487-0.81394 0.02377-1.1927-0.1434-0.44848-0.44892-0.87509-0.84233-1.1338-0.39813-0.26178-0.9013-0.38814-1.3844-0.38396z" fill="#c72653" stroke="#000" stroke-width="1e-8"/><path d="m87.438 51.239s0.72725-0.48915 1.141-0.61185c1.9517-0.57873 4.0498-0.49005 6.0853-0.51443 1.5627-0.01872 3.1289 0.09139 4.68 0.28292 0.53433 0.06598 1.0853 0.10349 1.5875 0.29766 0.3624 0.14013 0.99218 0.61185 0.99218 0.61185l-0.19843-0.79375-1.0087-0.81029-2.497-0.47956-4.4152-0.04961-3.9522 0.19844s-1.4242 0.24105-1.9182 0.71107c-0.30415 0.28934-0.49609 1.1576-0.49609 1.1576z" fill="#fff" fill-opacity=".14286" stroke-width="0"/><path d="m93.766 49.245c-0.11645 3.7e-4 -0.23293 2.2e-4 -0.34933 4e-3 -0.72158 0.0211-1.4444 0.0372-2.1632 0.10387-0.67266 0.0624-1.3526 0.11179-2.0076 0.27698-0.30447 0.0768-0.61308 0.16811-0.88263 0.32918-0.32283 0.1929-0.66648 0.41478-0.84801 0.74414-0.1607 0.29157-0.13002 0.65462-0.15606 0.98651-0.05144 0.65566 0 1.973 0 1.973h14.643s0.0514-1.3173 0-1.973c-0.026-0.33189 5e-3 -0.69492-0.15554-0.98651-0.18145-0.32941-0.52519-0.55124-0.84801-0.74414-0.26955-0.16107-0.57816-0.2524-0.88264-0.32918-0.65504-0.16519-1.335-0.21456-2.0076-0.27698-0.71897-0.0667-1.4418-0.0865-2.1637-0.10387-0.42113-0.0101-0.8425 8.3e-4 -1.2638 0-0.30498-6e-4 -0.60995-5e-3 -0.91493-4e-3z" fill="none" stroke="#000" stroke-width=".5"/><g fill="#fff" fill-opacity=".14286" stroke-width="0"><path d="m85.266 40.844s-0.1458-1.1069 0.0117-1.6253c0.11942-0.39305 0.35138-0.78011 0.6782-1.029 0.48247-0.36741 1.7306-0.56127 1.7306-0.56127l-1.4382-0.31571-1.4266 0.65481-0.52619 1.2628 0.40926 1.0407z"/><path d="m90.505 36.751s-0.25388-0.52743-0.3068-0.81184c-0.06269-0.33695-0.08492-0.69446-0.0068-1.0282 0.07926-0.33852 0.23766-0.67218 0.4692-0.93155 0.23816-0.26678 0.5697-0.44486 0.8975-0.58782 0.25809-0.11256 0.81996-0.20296 0.81996-0.20296l-1.4703-0.08082-1.303 0.87525-0.31671 1.3309 0.57095 0.96152z"/><path d="m96.362 36.564s-0.28238-0.60829-0.30402-0.93544c-0.02484-0.37569 0.03146-0.77651 0.20463-1.1108 0.16163-0.31205 0.44634-0.55618 0.73666-0.7542 0.26045-0.17765 0.56215-0.30569 0.87113-0.36833 0.35526-0.07202 1.0875 0 1.0875 0l-1.1927-0.42095-1.7189 0.56127-0.65481 1.2628 0.21047 1.0758z"/><path d="m101.29 40.134s-7e-3 -0.92855 0.19017-1.3312c0.14818-0.3029 0.42418-0.53766 0.70279-0.7276 0.21949-0.14964 0.47483-0.25674 0.73588-0.30592 0.37656-0.07094 1.1493 0.02479 1.1493 0.02479l-1.1493-0.47956-1.7115 0.60358-0.44648 1.1493z"/></g><path d="m99.524 49.388 3.5781-8.0212s0.88637-0.27604 1.2041-0.59067c0.33315-0.32994 0.57588-0.79169 0.63149-1.2573 0.0553-0.46282-0.064-0.96987-0.31574-1.3622-0.22206-0.34614-0.59032-0.61166-0.97617-0.75396-0.37345-0.13774-0.80174-0.13325-1.1927-0.0584-0.35121 0.0672-0.6954 0.22365-0.97669 0.44442-0.24781 0.19449-0.47647 0.44666-0.58446 0.74259-0.12232 0.33521-0.11032 0.72089-0.0351 1.0697 0.0595 0.27605 0.37414 0.76016 0.37414 0.76016l-2.467 2.3151-0.22221-5.5542s0.73617-0.38712 0.97049-0.71313c0.29136-0.40538 0.49503-0.92911 0.45579-1.4268-0.0442-0.56128-0.34941-1.1228-0.75965-1.5084-0.32443-0.30496-0.78425-0.48743-1.2278-0.52607-0.54251-0.0473-1.1356 0.075-1.5906 0.37414-0.39341 0.25869-0.69842 0.68582-0.84181 1.1343-0.1211 0.37875-0.0994 0.81443 0.0233 1.1927 0.14637 0.45153 0.81287 1.1694 0.81287 1.1694l-1.7089 4.5041-1.7095-4.5046s0.66598-0.71791 0.81235-1.1694c0.12262-0.37826 0.14487-0.81394 0.02377-1.1927-0.14342-0.44848-0.44894-0.87509-0.84235-1.1338-0.39813-0.26178-0.9013-0.38814-1.3844-0.38396-0.06902 6e-4 -0.13786 3e-3 -0.20567 9e-3 -0.44358 0.0386-0.9034 0.22162-1.2278 0.52658-0.41024 0.38562-0.71591 0.94715-0.76016 1.5084-0.03923 0.49768 0.16494 1.0209 0.4563 1.4263 0.23432 0.32601 0.97048 0.71314 0.97048 0.71314l-0.22221 5.5542-2.467-2.3151s0.31462-0.48411 0.37414-0.76016c0.07521-0.34881 0.08718-0.7345-0.03514-1.0697-0.10799-0.29593-0.33665-0.5481-0.58446-0.74259-0.28128-0.22077-0.62548-0.37721-0.97668-0.44441-0.39095-0.0749-0.81924-0.0794-1.1927 0.0584-0.38584 0.1423-0.7541 0.40834-0.97617 0.75448-0.25169 0.39232-0.37102 0.89937-0.31574 1.3622 0.05561 0.46559 0.29833 0.92682 0.63149 1.2568 0.31768 0.31463 1.2041 0.59066 1.2041 0.59066l3.5781 8.0212" fill="none" stroke="#000" stroke-width=".5"/><g fill-opacity=".14"><g stroke-width="0"><path d="m94.195 49.051s2.1482-0.29682 3.0758-0.81028c1.0611-0.58732 1.9056-1.5346 2.6534-2.4893 0.75374-0.96231 1.261-2.0982 1.7953-3.1976 0.32373-0.66608 0.85128-2.0522 0.85128-2.0522s0.7091-0.0348 1.017-0.19017c0.34296-0.17308 0.68491-0.43552 0.84336-0.78548 0.116-0.2562 0.0649-0.56499 0.0248-0.84336-0.038-0.26398-0.24804-0.76067-0.24804-0.76067l0.5209 0.44648 0.24804 1.2816-0.28112 0.84336-0.9095 0.67799-0.63666 0.19017-1.3229 2.9848-1.6454 3.5223-0.75241 1.5792-3.3156-0.13229z"/><path d="m97.849 36.21s0.76238-0.38159 1.0087-0.71107c0.18997-0.25408 0.28759-0.58451 0.30593-0.90123 0.0243-0.41932-0.26459-1.232-0.26459-1.232l0.99219 1.1162 0.0579 0.678-0.3638 1.1906-0.99219 0.81029-0.0265 4.2731z"/><path d="m94.03 40.27-2.034-3.9853s0.69753-0.62047 0.8847-1.0335c0.1517-0.33478 0.23095-0.73135 0.1571-1.0914-0.07978-0.38895-0.62012-1.017-0.62012-1.017l1.1824 0.89297 0.1571 1.4966-0.77721 1.2816z"/></g><path d="m89.791 42.244-2.5783-2.1632s0.28616-0.45862 0.36833-0.71328c0.08954-0.27751 0.17997-0.57824 0.12862-0.86528-0.0364-0.20348-0.16779-0.38333-0.29817-0.54373-0.20054-0.24669-0.72497-0.61973-0.72497-0.61973l0.88282 0.23386 0.71912 0.64312 0.21632 1.3213-0.34494 0.80097z" stroke="#000" stroke-width="1e-8"/></g></g></svg>
