<?xml version="1.0" encoding="UTF-8"?>
<svg width="45" height="45" version="1.1" xml:space="preserve" xmlns="http://www.w3.org/2000/svg"><g transform="matrix(1.823 0 0 1.823 -198.29 -57.193)"><path d="m119.95 32.243v1.7069h-1.7306v2.8298h1.5203l-0.37414 1.6139s-2.0658-0.87788-3.1569-0.86558c-1.0087 0.0113-2.1221 0.22345-2.9001 0.86558-1.2612 1.041-2.252 2.7144-2.2686 4.3496-0.0109 1.0702 0.80757 2.0034 1.4268 2.8763 0.80691 1.1375 2.1288 1.8474 2.9233 2.9936 0.17518 0.2527 0.3917 0.83509 0.3917 0.83509h0.29921c-0.0716 0.0154-0.14285 0.0317-0.21394 0.0496-0.30447 0.0768-0.61308 0.16811-0.88263 0.32918-0.32283 0.1929-0.66648 0.41478-0.84801 0.74414-0.1607 0.29157-0.13003 0.65461-0.15607 0.9865-0.0514 0.65566 0 1.973 0 1.973h14.643s0.0514-1.3174 0-1.973c-0.026-0.33189 5e-3 -0.69491-0.15555-0.9865-0.18145-0.32941-0.52519-0.55124-0.84801-0.74414-0.26955-0.16107-0.57815-0.2524-0.88263-0.32918-0.0892-0.0225-0.17917-0.043-0.26924-0.0615 0.0129-0.0345 0.21736-0.57842 0.38706-0.82321 0.79457-1.1462 2.1164-1.8561 2.9233-2.9936 0.61919-0.87295 1.4376-1.8061 1.4268-2.8763-0.0166-1.6352-1.0074-3.3086-2.2686-4.3496-0.77796-0.64213-1.8914-0.85425-2.9001-0.86558-1.0911-0.0123-3.1569 0.86558-3.1569 0.86558l-0.37414-1.6139h1.5198v-2.8298h-1.7301v-1.7069zm-2.913 8.9762c0.13149-2e-3 0.26183 8e-3 0.38758 0.0274 0.66205 0.10348 1.7539 0.98236 1.7539 0.98236v3.6478h-1.3333l-2.2448-2.4551s-0.32806-0.52094-0.30282-0.80719c0.0362-0.41055 0.29406-0.82517 0.62993-1.064 0.31116-0.22128 0.71505-0.32594 1.1095-0.33124zm8.122 0c0.0164-1.3e-4 0.0327-2.2e-4 0.0491 0 0.39445 5e-3 0.79782 0.10996 1.109 0.33124 0.33587 0.23885 0.59425 0.65347 0.63045 1.064 0.0252 0.28625-0.30282 0.80719-0.30282 0.80719l-2.2448 2.4551h-1.3332v-3.6478s1.0918-0.87888 1.7539-0.98236c0.11002-0.0172 0.22373-0.0265 0.33848-0.0274z" fill="#d97211" stroke="#000" stroke-width="1e-8"/><path d="m112.34 45.439s-0.74092-1.6976-0.72496-2.5959c0.0158-0.88738 0.34964-1.7767 0.80681-2.5374 0.3876-0.64495 0.937-1.2205 1.5786-1.6136 0.56759-0.34784 1.2454-0.51371 1.906-0.59634 0.92571-0.1158 2.7946 0.15201 2.7946 0.15201l-2.362-0.76005-2.5491 0.52619-1.9761 1.9878-0.74835 2.3854 0.30402 1.6253z" fill="#fff" fill-opacity=".14286" stroke-width="0"/><path d="m118.67 36.653v-2.064h1.9348l4e-3 -1.7446h1.4428l5e-3 1.7264h1.8976l-9e-3 -0.67114h-1.6082v-1.6578h-2.4515v1.6495h-1.6867v2.774z" fill="#fff" fill-opacity=".14286" stroke-width="0"/><path d="m126.46 49.448s0.21653-0.58239 0.39171-0.83509c0.79457-1.1462 2.1164-1.8561 2.9233-2.9936 0.6192-0.87295 1.4376-1.8061 1.4268-2.8763-0.0166-1.6352-1.0074-3.3086-2.2686-4.3496-0.77796-0.64213-1.8914-0.85425-2.9001-0.86558-1.0911-0.0123-3.1569 0.86558-3.1569 0.86558l-0.37414-1.6139h1.5198v-2.8298h-1.7301v-1.7069h-2.3451v1.7069h-1.7306v2.8298h1.5203l-0.37414 1.6139s-2.0658-0.87788-3.1569-0.86558c-1.0087 0.0113-2.122 0.22338-2.9001 0.86558-1.2611 1.0409-2.252 2.7145-2.2686 4.3496-0.0109 1.0702 0.80757 2.0034 1.4268 2.8763 0.80691 1.1375 2.1288 1.8474 2.9233 2.9936 0.17518 0.2527 0.3917 0.83509 0.3917 0.83509m1.2552-8.229c0.13149-2e-3 0.26183 8e-3 0.38758 0.0274 0.66205 0.10348 1.7539 0.98236 1.7539 0.98236v3.6478h-1.3333l-2.2448-2.4551s-0.32806-0.52094-0.30282-0.80719c0.0362-0.41055 0.29406-0.82517 0.62993-1.064 0.31116-0.22128 0.71505-0.32594 1.1095-0.33124zm8.122 0c0.0164-1.3e-4 0.0327-2.2e-4 0.0491 0 0.39445 5e-3 0.79782 0.10996 1.109 0.33124 0.33587 0.23885 0.59425 0.65347 0.63045 1.064 0.0252 0.28625-0.30282 0.80719-0.30282 0.80719l-2.2448 2.4551h-1.3332v-3.6478s1.0918-0.87888 1.7539-0.98236c0.11002-0.0172 0.22373-0.0265 0.33848-0.0274z" fill-opacity="0" stroke="#000" stroke-width=".5"/><path d="m124.31 49.069s1.2014-0.49802 1.7363-0.8599c1.0162-0.68741 1.9678-1.503 2.7434-2.4536 0.67135-0.82282 1.3176-1.73 1.604-2.7526 0.17457-0.62333 0.1313-1.3014 0.0359-1.9416-0.0869-0.58334-0.54687-1.6827-0.54687-1.6827l1.1245 2.0505 0.24805 1.604-1.4552 2.5301-2.2159 2.2159-0.74414 0.8599-0.57878 0.64492z" fill-opacity=".14" stroke-width="0"/><path d="m114.05 51.239s0.72725-0.48915 1.141-0.61185c1.9517-0.57873 4.0498-0.49005 6.0853-0.51443 1.5627-0.01872 3.1289 0.09139 4.68 0.28292 0.53433 0.06598 1.0853 0.10349 1.5875 0.29766 0.3624 0.14013 0.99218 0.61185 0.99218 0.61185l-0.19843-0.79375-1.0087-0.81029-2.497-0.47956-4.4152-0.04961-3.9522 0.19844s-1.4242 0.24105-1.9182 0.71107c-0.30415 0.28934-0.49609 1.1576-0.49609 1.1576z" fill="#fff" fill-opacity=".14286" stroke-width="0"/><path d="m120.38 49.113c-0.11645 3.7e-4 -0.23293 2.2e-4 -0.34933 4e-3 -0.72158 0.0211-1.4444 0.0372-2.1632 0.10387-0.67265 0.0624-1.3526 0.11179-2.0076 0.27698-0.30447 0.0768-0.61308 0.16811-0.88263 0.32918-0.32283 0.1929-0.66648 0.41478-0.84801 0.74414-0.1607 0.29157-0.13002 0.65462-0.15606 0.98651-0.0514 0.65566 0 1.973 0 1.973h14.643s0.0514-1.3173 0-1.973c-0.026-0.33189 5e-3 -0.69492-0.15554-0.98651-0.18145-0.32941-0.52519-0.55124-0.84801-0.74414-0.26955-0.16107-0.57816-0.2524-0.88264-0.32918-0.65504-0.16519-1.335-0.21456-2.0076-0.27698-0.71897-0.0667-1.4418-0.0865-2.1637-0.10387-0.42113-0.0101-0.8425 8.3e-4 -1.2638 0-0.30498-6e-4 -0.60995-5e-3 -0.91493-4e-3z" fill="none" stroke="#000" stroke-width=".5"/></g></svg>
