<?xml version="1.0" encoding="UTF-8"?>
<!-- Created with Inkscape (http://www.inkscape.org/) -->
<svg width="210mm" height="297mm" version="1.1" viewBox="0 0 210 297" xmlns="http://www.w3.org/2000/svg" xmlnsSvg="http://www.w3.org/2000/svg">
 <g transform="matrix(8.6221 0 0 8.6221 -119.43 -2299.8)">
  <path d="m21.535 266.98c-0.57215 0-1.7157 0.0522-1.7157 0.0522l-0.31161 2.8727h-1.3327l-0.48472-2.4231s-0.95058-0.0393-1.4015 0.0868c-0.37029 0.10356-1.0211 0.53641-1.0211 0.53641s-0.03602 1.1318 0 1.696c0.04336 0.67913-0.0068 1.3989 0.25942 2.0252 0.21993 0.51741 0.56348 1.0436 1.0558 1.3152 0.23192 0.12796 0.50326 0.14387 0.7767 0.14211-0.04081 0.019-0.08156 0.0373-0.12247 0.0568l-1.0005 8.4718c0.04021 0.01 0.07894 0.0188 0.11886 0.0284-0.1151 0.0224-0.22988 0.0473-0.34365 0.076-0.30448 0.0768-0.61308 0.1681-0.88264 0.32917-0.32282 0.1929-0.66648 0.41479-0.84801 0.74415-0.1607 0.29157-0.13002 0.65461-0.15606 0.9865-0.05144 0.65566 0 1.973 0 1.973h14.643s0.05144-1.3173 0-1.973c-0.02604-0.33189 0.0051-0.69491-0.15555-0.9865-0.18144-0.32941-0.52518-0.55125-0.84801-0.74415-0.26955-0.16107-0.57816-0.25239-0.88263-0.32917-0.0841-0.0212-0.16836-0.0407-0.25321-0.0584 0.084-0.0154 0.16784-0.0309 0.25218-0.046l-0.95653-8.4966c-0.02251-0.0115-0.04515-0.0222-0.0677-0.0336 0.22296-6e-3 0.44013-0.0355 0.63045-0.14056 0.49227-0.27156 0.83582-0.79775 1.0557-1.3152 0.26621-0.62628 0.21606-1.3461 0.25942-2.0252 0.03602-0.56422 0-1.696 0-1.696s-0.65084-0.43285-1.0211-0.53641c-0.45088-0.1261-1.402-0.0868-1.402-0.0868l-0.48421 2.4231h-1.3327l-0.31161-2.8727s-1.1435-0.0522-1.7157-0.0522z" fill="#3dd911" stroke="#000" stroke-width="1e-8"/>
  <path d="m26.846 267.67s-0.13962 1.3648-0.28557 2.0336c-0.14185 0.65-0.23942 1.3357-0.57114 1.9124-0.22486 0.39094-0.54265 0.74883-0.92594 0.98651-0.43275 0.26835-1.4625 0.44134-1.4625 0.44134l0.91728 0.15576 1.4192 0.1125 1.0644-0.53652 0.68364-1.1856 0.15576-1.8-0.02595-1.6874z" fill-opacity=".14039" stroke-width="0"/>
  <path d="m19.785 273.07s0.94047 0.27999 1.3846 0.4846c0.59403 0.27369 1.2313 0.52637 1.6961 0.98651 0.60118 0.59513 1.0046 1.3873 1.298 2.1807 0.41026 1.1093 0.47573 2.3205 0.60575 3.4961 0.05207 0.47076 0.06923 1.4192 0.06923 1.4192l2.1288 0.31153-1.0904-8.7401-1.9557-0.0519-2.2153-0.19039z" fill-opacity=".14039" stroke-width="0"/>
  <g fill="none" stroke="#000" stroke-width=".5">
   <path d="m20.532 281.53c-0.11645 3.7e-4 -0.23293 2.2e-4 -0.34933 4e-3 -0.72158 0.0211-1.4444 0.0372-2.1632 0.10387-0.67266 0.0624-1.3526 0.11179-2.0076 0.27698-0.30447 0.0768-0.61308 0.16811-0.88263 0.32918-0.32283 0.1929-0.66648 0.41478-0.84801 0.74414-0.1607 0.29157-0.13002 0.65462-0.15606 0.98651-0.05144 0.65566 0 1.973 0 1.973h14.643s0.05144-1.3173 0-1.973c-0.02604-0.33189 0.0051-0.69492-0.15555-0.98651-0.18144-0.32941-0.52518-0.55124-0.84801-0.74414-0.26955-0.16107-0.57816-0.2524-0.88263-0.32918-0.65504-0.16519-1.335-0.21456-2.0076-0.27698-0.71897-0.0667-1.4418-0.0865-2.1637-0.10387-0.42113-0.0101-0.8425 8.3e-4 -1.2637 0-0.30498-6e-4 -0.60995-5e-3 -0.91493-4e-3z"/>
   <path d="m19.82 267.03-0.31161 2.8727h-1.3327l-0.48472-2.4231s-0.95058-0.0393-1.4015 0.0868c-0.37029 0.10356-1.0211 0.5364-1.0211 0.5364s-0.03602 1.1318 0 1.696c0.04336 0.67913-0.0068 1.3989 0.25942 2.0252 0.21993 0.51741 0.56348 1.0436 1.0557 1.3152 0.3559 0.19636 0.80494 0.1295 1.2113 0.1385 0.74371 0.0168 2.49-0.29735 3.7409-0.29735 1.2507 1e-5 2.9966 0.31414 3.7403 0.29735 0.40636-9e-3 0.85591 0.0579 1.2118-0.1385 0.49227-0.27156 0.83582-0.79775 1.0558-1.3152 0.26621-0.62628 0.21606-1.3461 0.25942-2.0252 0.03602-0.56422 0-1.696 0-1.696s-0.65084-0.43284-1.0211-0.5364c-0.45088-0.1261-1.402-0.0868-1.402-0.0868l-0.48421 2.4231h-1.3327l-0.31161-2.8727s-1.1435-0.0522-1.7157-0.0522c-0.57215 0-1.7157 0.0522-1.7157 0.0522z"/>
   <path d="m17.237 273.34-1.0005 8.472m10.644 0-0.95634-8.4965"/>
  </g>
 </g>
</svg>
